<?xml version="1.0" standalone="no"?>
<!DOCTYPE svg PUBLIC "-//W3C//DTD SVG 20010904//EN"
 "http://www.w3.org/TR/2001/REC-SVG-20010904/DTD/svg10.dtd">
<svg version="1.0" xmlns="http://www.w3.org/2000/svg"
 width="700.000000pt" height="700.000000pt" viewBox="0 0 700.000000 700.000000"
 preserveAspectRatio="xMidYMid meet">
<metadata>
Created by potrace 1.11, written by Peter Selinger 2001-2013
</metadata>
<g transform="translate(0.000000,700.000000) scale(0.100000,-0.100000)"
fill="#000000" stroke="none">
<path d="M2609 5576 c-2 -2 -29 -6 -59 -10 -205 -22 -435 -148 -643 -352 -121
-120 -288 -332 -353 -449 -6 -11 -31 -51 -54 -90 -24 -38 -77 -135 -117 -215
-73 -141 -77 -148 -191 -261 -213 -211 -315 -337 -400 -498 -50 -94 -97 -222
-108 -291 -3 -19 -7 -37 -9 -40 -13 -21 -18 -218 -19 -705 -1 -521 0 -563 17
-597 22 -44 75 -65 217 -83 25 -4 56 -8 70 -10 22 -3 92 -11 175 -20 17 -2 64
-6 105 -10 41 -4 91 -8 110 -10 19 -2 82 -6 140 -10 58 -3 132 -8 165 -10 160
-10 436 -21 820 -31 341 -9 1738 -9 2070 0 402 11 701 23 805 31 30 3 105 7
165 10 61 4 121 8 135 10 14 2 61 7 105 10 44 4 94 8 110 10 52 5 149 16 175
20 14 2 45 7 70 10 166 24 214 48 229 116 12 61 5 1156 -9 1244 -35 225 -131
434 -288 625 -52 63 -221 233 -301 304 -44 38 -64 67 -101 144 -91 189 -229
414 -358 582 -101 132 -292 315 -407 392 -122 81 -264 146 -355 163 -14 3 -36
8 -50 12 -26 7 -1853 17 -1861 9z m1891 -336 c248 -46 474 -264 641 -615 58
-124 90 -213 105 -301 l6 -30 -1751 0 c-1479 0 -1751 2 -1751 14 0 30 54 170
105 273 166 334 385 568 603 645 l67 23 960 1 c612 0 981 -3 1015 -10z m-2882
-1910 c127 -27 244 -114 301 -227 39 -77 45 -109 45 -209 -1 -203 -145 -377
-347 -418 -146 -30 -290 14 -394 120 -172 175 -170 447 5 620 44 44 142 99
192 109 12 2 24 6 26 7 9 9 124 7 172 -2z m3997 -21 c179 -66 287 -220 288
-408 1 -166 -93 -320 -239 -392 -77 -38 -108 -44 -216 -42 -78 1 -95 5 -160
37 -40 19 -87 48 -104 63 -209 187 -199 510 21 679 115 88 277 113 410 63z
m-1244 -221 c143 -84 149 -276 10 -373 l-43 -30 -811 -3 c-593 -2 -823 0 -854
9 -115 31 -185 165 -144 276 25 70 83 124 150 143 14 4 391 6 836 6 l810 -1
46 -27z"/>
<path d="M876 1811 c-2 -3 -2 -64 0 -134 3 -138 23 -230 52 -246 10 -5 269 -9
610 -9 668 0 627 -5 643 78 4 25 8 91 9 148 l0 102 -97 1 c-166 1 -558 15
-668 24 -27 2 -90 7 -140 10 -99 7 -153 11 -265 21 -126 11 -141 11 -144 5z"/>
<path d="M6068 1814 c-2 -1 -42 -5 -90 -8 -47 -4 -94 -8 -105 -10 -10 -2 -74
-7 -143 -11 -69 -4 -141 -8 -160 -10 -30 -3 -153 -8 -450 -20 -36 -2 -120 -3
-187 -4 l-123 -1 0 -112 c0 -129 11 -182 43 -202 18 -12 119 -14 626 -13 l604
2 21 28 c19 26 21 41 21 195 l0 166 -27 1 c-15 1 -29 1 -30 -1z"/>
</g>
</svg>
